<?xml version="1.0" encoding="utf-8"?>
<!-- Generator: Adobe Illustrator 19.0.0, SVG Export Plug-In . SVG Version: 6.00 Build 0)  -->
<svg version="1.1" id="Layer_1" xmlns="http://www.w3.org/2000/svg" xmlns:xlink="http://www.w3.org/1999/xlink" x="0px" y="0px"
	 viewBox="62 -43.007 324.416 287.007" style="enable-background:new 62 -43.007 324.416 287.007;" xml:space="preserve">
<style type="text/css">
	.st0{fill:#3C96EC;}
	.st1{enable-background:new    ;}
	.st2{font-family:'Raleway-Bold';}
	.st3{font-size:14.3738px;}
</style>
<g>
	<g>
		<g>
			<path class="st0" d="M296.947,68.516h4.594l20.476,47.891h-6.691l-6.087-14.111h-19.483l-5.705,14.111h-6.719L296.947,68.516z
				 M306.551,96.228l-7.368-17.248l-6.83,17.248H306.551z"/>
		</g>
		<g>
			<path class="st0" d="M170.481,105.363v7.498c-4.794,2.727-10.329,4.09-16.605,4.09c-5.099,0-9.425-1.068-12.978-3.205
				c-3.551-2.134-6.362-5.078-8.432-8.827c-2.071-3.749-3.105-7.806-3.105-12.168c0-6.93,2.37-12.759,7.109-17.486
				c4.74-4.726,10.585-7.089,17.537-7.089c4.793,0,10.12,1.307,15.983,3.919v7.329c-5.339-3.182-10.557-4.772-15.656-4.772
				c-5.231,0-9.574,1.722-13.027,5.165c-3.453,3.443-5.181,7.754-5.181,12.935c0,5.225,1.7,9.521,5.099,12.884
				c3.399,3.363,7.747,5.045,13.043,5.045C159.804,110.679,165.207,108.908,170.481,105.363z"/>
		</g>
		<g>
			<path class="st0" d="M174.308,68.789h6.538v47.618h-6.538V68.789z"/>
		</g>
		<g>
			<path class="st0" d="M211.312,92.956h15.33v20.178c-5.622,2.546-11.201,3.817-16.736,3.817c-7.561,0-13.603-2.298-18.124-6.903
				c-4.523-4.601-6.784-10.277-6.784-17.025c0-7.113,2.343-13.031,7.028-17.759c4.686-4.726,10.559-7.089,17.618-7.089
				c2.571,0,5.013,0.289,7.322,0.869c2.31,0.58,5.229,1.642,8.761,3.186v6.954c-5.449-3.294-10.852-4.943-16.214-4.943
				c-4.99,0-9.196,1.772-12.619,5.317c-3.421,3.545-5.131,7.897-5.131,13.055c0,5.409,1.709,9.828,5.131,13.259
				c3.423,3.434,7.825,5.147,13.206,5.147c2.615,0,5.744-0.622,9.382-1.873l0.621-0.205v-9.919h-8.792L211.312,92.956
				L211.312,92.956z"/>
		</g>
		<g>
			<path class="st0" d="M267.861,68.789h6.112v47.618h-6.568v-37.05l-14.04,18.406h-1.208l-14.204-18.406v37.05h-6.538V68.789h6.189
				l15.173,19.555L267.861,68.789z"/>
		</g>
	</g>
	<g class="st1">
		<path class="st0" d="M135.842,130.167c0-0.622,0.096-1.238,0.289-1.847c0.193-0.609,0.472-1.152,0.836-1.631
			c0.364-0.479,0.81-0.867,1.338-1.164c0.528-0.296,1.131-0.445,1.81-0.445c0.796,0,1.485,0.206,2.067,0.617
			c0.582,0.412,1.011,0.949,1.288,1.61l-1.333,1.05c-0.1-0.287-0.231-0.529-0.389-0.726c-0.159-0.196-0.333-0.352-0.521-0.467
			s-0.384-0.199-0.585-0.251c-0.201-0.052-0.394-0.079-0.578-0.079c-0.411,0-0.77,0.101-1.081,0.302
			c-0.311,0.201-0.567,0.462-0.773,0.784c-0.205,0.32-0.36,0.685-0.465,1.092c-0.105,0.407-0.157,0.812-0.157,1.215
			c0,0.45,0.061,0.884,0.183,1.3c0.122,0.416,0.293,0.784,0.516,1.099c0.222,0.317,0.488,0.57,0.798,0.762
			c0.31,0.192,0.649,0.287,1.018,0.287c0.193,0,0.39-0.029,0.591-0.086c0.201-0.058,0.396-0.149,0.584-0.274
			c0.188-0.124,0.363-0.284,0.521-0.481c0.159-0.196,0.289-0.434,0.389-0.712l1.42,0.935c-0.134,0.384-0.329,0.721-0.584,1.013
			c-0.255,0.292-0.547,0.54-0.873,0.741c-0.327,0.201-0.67,0.354-1.031,0.46c-0.36,0.106-0.716,0.158-1.067,0.158
			c-0.62,0-1.188-0.153-1.702-0.46c-0.515-0.307-0.959-0.706-1.332-1.2c-0.372-0.493-0.662-1.053-0.867-1.682
			C135.945,131.458,135.842,130.819,135.842,130.167z"/>
		<path class="st0" d="M151.776,133.603v1.739h-6.195v-10.205h6.082v1.739h-4.348v2.458h3.757v1.61h-3.757v2.659H151.776z"/>
		<path class="st0" d="M155.696,128.802v6.54h-1.735v-10.205h1.345l4.649,6.698v-6.684h1.735v10.192h-1.408L155.696,128.802z"/>
		<path class="st0" d="M171.013,126.875h-2.84v8.466h-1.735v-8.466h-2.852v-1.739h7.426L171.013,126.875L171.013,126.875z"/>
		<path class="st0" d="M172.923,135.342v-10.205h3.946c0.411,0,0.79,0.099,1.138,0.295c0.348,0.196,0.647,0.455,0.898,0.776
			c0.251,0.321,0.448,0.685,0.591,1.092c0.143,0.408,0.214,0.818,0.214,1.229c0,0.661-0.145,1.262-0.434,1.804
			c-0.288,0.541-0.681,0.931-1.175,1.171l2.098,3.838h-1.96l-1.872-3.42h-1.709v3.42H172.923L172.923,135.342z M174.657,130.182
			h2.173c0.159,0,0.308-0.044,0.447-0.13c0.138-0.086,0.257-0.203,0.358-0.352c0.1-0.149,0.18-0.324,0.239-0.525
			s0.087-0.417,0.087-0.647c0-0.239-0.034-0.46-0.1-0.661c-0.067-0.201-0.157-0.376-0.271-0.525
			c-0.113-0.148-0.243-0.263-0.389-0.345c-0.147-0.082-0.295-0.122-0.446-0.122h-2.099L174.657,130.182L174.657,130.182z"/>
		<path class="st0" d="M188.379,133.603v1.739h-6.195v-10.205h6.082v1.739h-4.348v2.458h3.757v1.61h-3.757v2.659H188.379z"/>
		<path class="st0" d="M194.36,135.342v-10.205h3.242c0.729,0,1.367,0.135,1.916,0.403c0.549,0.268,1.007,0.632,1.376,1.092
			c0.369,0.46,0.645,0.999,0.83,1.617c0.183,0.618,0.276,1.277,0.276,1.977c0,0.776-0.103,1.478-0.308,2.105
			c-0.206,0.628-0.501,1.164-0.886,1.61c-0.385,0.446-0.849,0.79-1.389,1.035c-0.541,0.245-1.146,0.367-1.815,0.367L194.36,135.342
			L194.36,135.342z M200.254,130.225c0-0.488-0.058-0.939-0.176-1.352c-0.118-0.412-0.289-0.766-0.516-1.063
			c-0.227-0.297-0.505-0.527-0.835-0.689c-0.332-0.163-0.706-0.245-1.124-0.245h-1.509v6.727h1.509c0.427,0,0.806-0.086,1.137-0.259
			c0.331-0.172,0.607-0.41,0.829-0.712c0.222-0.302,0.392-0.658,0.509-1.071C200.195,131.148,200.254,130.705,200.254,130.225z"/>
		<path class="st0" d="M203.796,124.848c0.192,0,0.396,0.022,0.609,0.065s0.408,0.122,0.584,0.237
			c0.175,0.115,0.323,0.266,0.44,0.452c0.118,0.187,0.176,0.424,0.176,0.712v1.897h-1.383v-1.538
			c-0.017-0.202-0.078-0.328-0.183-0.381c-0.105-0.053-0.186-0.079-0.245-0.079L203.796,124.848L203.796,124.848z"/>
		<path class="st0" d="M214.226,133.603v1.739h-6.195v-10.205h6.082v1.739h-4.348v2.458h3.757v1.61h-3.757v2.659H214.226z"/>
		<path class="st0" d="M217.316,125.137l2.224,3.794l2.212-3.794h1.872l-3.179,5.175l3.078,5.031h-1.872l-2.111-3.652l-2.124,3.652
			h-1.885l3.079-5.031l-3.179-5.175C215.431,125.137,217.316,125.137,217.316,125.137z"/>
		<path class="st0" d="M224.768,130.167c0-0.622,0.096-1.238,0.289-1.847c0.192-0.609,0.471-1.152,0.835-1.631
			c0.364-0.479,0.811-0.867,1.338-1.164c0.528-0.296,1.132-0.445,1.81-0.445c0.796,0,1.485,0.206,2.067,0.617
			c0.583,0.412,1.012,0.949,1.288,1.61l-1.332,1.05c-0.1-0.287-0.231-0.529-0.389-0.726s-0.333-0.352-0.521-0.467
			s-0.384-0.199-0.584-0.251c-0.201-0.052-0.393-0.079-0.578-0.079c-0.411,0-0.771,0.101-1.081,0.302
			c-0.31,0.201-0.568,0.462-0.773,0.784c-0.206,0.32-0.36,0.685-0.465,1.092c-0.105,0.407-0.156,0.812-0.156,1.215
			c0,0.45,0.06,0.884,0.183,1.3c0.121,0.417,0.292,0.784,0.515,1.099c0.222,0.317,0.488,0.57,0.798,0.762
			c0.31,0.192,0.649,0.287,1.018,0.287c0.193,0,0.389-0.029,0.59-0.086c0.201-0.058,0.396-0.149,0.585-0.274
			c0.188-0.124,0.362-0.284,0.521-0.481c0.159-0.196,0.289-0.434,0.389-0.712l1.42,0.935c-0.134,0.384-0.328,0.721-0.584,1.013
			c-0.255,0.292-0.547,0.54-0.874,0.741c-0.326,0.201-0.67,0.354-1.03,0.46c-0.36,0.106-0.717,0.158-1.068,0.158
			c-0.62,0-1.187-0.153-1.702-0.46c-0.516-0.307-0.959-0.706-1.332-1.2c-0.373-0.493-0.662-1.053-0.867-1.682
			C224.87,131.458,224.768,130.819,224.768,130.167z"/>
		<path class="st0" d="M240.701,133.603v1.739h-6.195v-10.205h6.082v1.739h-4.348v2.458h3.757v1.61h-3.757v2.659H240.701z"/>
		<path class="st0" d="M242.887,135.342v-10.205h1.734v8.466h4.549v1.739H242.887z"/>
		<path class="st0" d="M251.079,135.342v-10.205h1.734v8.466h4.549v1.739H251.079z"/>
		<path class="st0" d="M265.468,133.603v1.739h-6.195v-10.205h6.082v1.739h-4.348v2.458h3.757v1.61h-3.757v2.659H265.468z"/>
		<path class="st0" d="M269.388,128.802v6.54h-1.734v-10.205h1.345l4.649,6.698v-6.684h1.735v10.192h-1.408L269.388,128.802z"/>
		<path class="st0" d="M277.505,130.167c0-0.622,0.096-1.238,0.289-1.847c0.192-0.609,0.471-1.152,0.835-1.631
			c0.364-0.479,0.811-0.867,1.338-1.164c0.528-0.296,1.132-0.445,1.81-0.445c0.796,0,1.485,0.206,2.067,0.617
			c0.583,0.412,1.012,0.949,1.288,1.61l-1.332,1.05c-0.1-0.287-0.231-0.529-0.389-0.726c-0.159-0.196-0.333-0.352-0.521-0.467
			c-0.188-0.115-0.384-0.199-0.584-0.251c-0.201-0.052-0.393-0.079-0.578-0.079c-0.411,0-0.771,0.101-1.081,0.302
			c-0.31,0.201-0.568,0.462-0.773,0.784c-0.206,0.32-0.36,0.685-0.465,1.092c-0.105,0.407-0.156,0.812-0.156,1.215
			c0,0.45,0.06,0.884,0.183,1.3c0.121,0.417,0.292,0.784,0.515,1.099c0.222,0.317,0.488,0.57,0.798,0.762
			c0.31,0.192,0.649,0.287,1.018,0.287c0.193,0,0.389-0.029,0.59-0.086c0.201-0.058,0.396-0.149,0.585-0.274
			c0.188-0.124,0.362-0.284,0.521-0.481c0.159-0.196,0.289-0.434,0.389-0.712l1.42,0.935c-0.134,0.384-0.328,0.721-0.584,1.013
			s-0.547,0.54-0.874,0.741c-0.326,0.201-0.67,0.354-1.03,0.46c-0.36,0.106-0.717,0.158-1.068,0.158c-0.62,0-1.187-0.153-1.703-0.46
			c-0.516-0.307-0.959-0.706-1.332-1.2c-0.373-0.493-0.662-1.053-0.867-1.682C277.607,131.458,277.505,130.819,277.505,130.167z"/>
		<path class="st0" d="M293.438,133.603v1.739h-6.195v-10.205h6.082v1.739h-4.348v2.458h3.757v1.61h-3.757v2.659H293.438z"/>
		<path class="st0" d="M305.614,133.603v1.739h-6.195v-10.205h6.082v1.739h-4.348v2.458h3.757v1.61h-3.757v2.659H305.614z"/>
		<path class="st0" d="M309.533,128.802v6.54H307.8v-10.205h1.345l4.649,6.698v-6.684h1.734v10.192h-1.408L309.533,128.802z"/>
	</g>
	<g class="st1">
		<path class="st0" d="M136.37,150.744v-10.192h1.735v10.192H136.37z"/>
		<path class="st0" d="M141.698,144.204v6.54h-1.735v-10.205h1.345l4.649,6.698v-6.684h1.735v10.192h-1.408L141.698,144.204z"/>
		<path class="st0" d="M155.532,149.595c-0.687,0.814-1.479,1.221-2.375,1.221c-0.569,0-1.106-0.144-1.608-0.432
			c-0.503-0.287-0.941-0.673-1.313-1.156c-0.372-0.484-0.666-1.043-0.879-1.674c-0.214-0.633-0.32-1.288-0.32-1.969
			c0-0.7,0.107-1.358,0.32-1.977c0.214-0.617,0.511-1.159,0.892-1.624c0.381-0.464,0.83-0.834,1.345-1.107
			c0.516-0.273,1.075-0.41,1.678-0.41c0.813,0,1.508,0.201,2.086,0.604c0.578,0.403,1.014,0.944,1.307,1.624l-1.294,1.092
			c-0.218-0.508-0.517-0.896-0.898-1.164c-0.381-0.268-0.802-0.402-1.263-0.402c-0.368,0-0.701,0.09-0.999,0.273
			c-0.298,0.183-0.551,0.431-0.76,0.748c-0.21,0.316-0.373,0.681-0.49,1.091c-0.117,0.412-0.176,0.849-0.176,1.309
			c0,0.48,0.063,0.927,0.188,1.345c0.126,0.417,0.302,0.778,0.528,1.084c0.227,0.308,0.492,0.549,0.798,0.726
			c0.306,0.178,0.643,0.267,1.011,0.267c0.821,0,1.562-0.465,2.224-1.394v-0.718h-1.797v-1.452h3.23v5.247h-1.433L155.532,149.595
			L155.532,149.595z"/>
		<path class="st0" d="M164.655,149.004v1.739h-6.195v-10.205h6.082v1.739h-4.348v2.458h3.757v1.61h-3.757v2.659H164.655z
			 M162.067,139.676l-1.081-0.374l0.679-1.711h1.57L162.067,139.676z"/>
		<path class="st0" d="M167.784,144.204v6.54h-1.735v-10.205h1.345l4.649,6.698v-6.684h1.735v10.192h-1.408L167.784,144.204z"/>
		<path class="st0" d="M175.636,150.744v-10.192h1.735v10.192H175.636z"/>
		<path class="st0" d="M185.426,149.004v1.739h-6.195v-10.205h6.082v1.739h-4.348v2.458h3.757v1.61h-3.757v2.659H185.426z"/>
		<path class="st0" d="M186.82,150.744v-10.205h3.946c0.411,0,0.79,0.098,1.138,0.295c0.348,0.196,0.647,0.455,0.898,0.776
			c0.251,0.321,0.448,0.685,0.591,1.092c0.143,0.408,0.214,0.818,0.214,1.229c0,0.661-0.145,1.262-0.434,1.804
			c-0.288,0.541-0.681,0.931-1.175,1.171l2.098,3.838h-1.96l-1.872-3.42h-1.71v3.42H186.82z M188.554,145.584h2.174
			c0.159,0,0.308-0.044,0.447-0.13c0.138-0.086,0.257-0.203,0.358-0.352c0.1-0.149,0.18-0.324,0.239-0.525
			c0.058-0.201,0.087-0.417,0.087-0.647c0-0.239-0.034-0.46-0.1-0.661c-0.067-0.201-0.157-0.376-0.271-0.525
			c-0.113-0.148-0.243-0.263-0.389-0.345c-0.147-0.082-0.295-0.122-0.446-0.122h-2.099V145.584z"/>
		<path class="st0" d="M195.289,150.744v-10.192h1.734v10.192H195.289z"/>
		<path class="st0" d="M205.078,149.004v1.739h-6.195v-10.205h6.082v1.739h-4.348v2.458h3.757v1.61h-3.757v2.659H205.078z"/>
		<path class="st0" d="M215.67,149.004v1.739h-6.195v-10.205h6.082v1.739h-4.348v2.458h3.757v1.61h-3.757v2.659H215.67z"/>
		<path class="st0" d="M223.738,142.278h-2.84v8.466h-1.735v-8.466h-2.852v-1.739h7.426L223.738,142.278L223.738,142.278z"/>
		<path class="st0" d="M234.782,150.744v-6.756l-2.299,5.031h-0.943l-2.3-5.031v6.756h-1.734v-10.205h1.859l2.639,5.807l2.664-5.807
			h1.847v10.205H234.782z"/>
		<path class="st0" d="M237.471,150.744l3.519-10.205h1.408l3.506,10.205h-1.835l-0.818-2.544h-3.129l-0.817,2.544H237.471z
			 M241.694,142.68l-1.282,4.125h2.526L241.694,142.68z"/>
		<path class="st0" d="M248.591,144.204v6.54h-1.734v-10.205h1.345l4.649,6.698v-6.684h1.735v10.192h-1.408L248.591,144.204z"/>
		<path class="st0" d="M255.54,150.744l3.519-10.205h1.408l3.506,10.205h-1.835l-0.818-2.544h-3.129l-0.817,2.544H255.54z
			 M259.762,142.68l-1.282,4.125h2.526L259.762,142.68z"/>
		<path class="st0" d="M270.908,149.595c-0.686,0.814-1.478,1.221-2.374,1.221c-0.57,0-1.106-0.144-1.609-0.432
			c-0.503-0.287-0.941-0.673-1.313-1.156c-0.373-0.484-0.666-1.043-0.88-1.674c-0.214-0.633-0.32-1.288-0.32-1.969
			c0-0.7,0.107-1.358,0.32-1.977c0.214-0.617,0.511-1.159,0.892-1.624c0.381-0.464,0.829-0.834,1.345-1.107
			c0.516-0.273,1.075-0.41,1.678-0.41c0.813,0,1.508,0.201,2.085,0.604c0.579,0.403,1.014,0.944,1.307,1.624l-1.294,1.092
			c-0.217-0.508-0.517-0.896-0.898-1.164c-0.382-0.268-0.802-0.402-1.263-0.402c-0.369,0-0.702,0.09-0.999,0.273
			c-0.297,0.183-0.551,0.431-0.76,0.748c-0.21,0.316-0.372,0.681-0.489,1.091c-0.117,0.412-0.176,0.849-0.176,1.309
			c0,0.48,0.062,0.927,0.188,1.345c0.125,0.417,0.301,0.778,0.528,1.084c0.226,0.308,0.492,0.549,0.798,0.726
			c0.306,0.178,0.643,0.267,1.011,0.267c0.821,0,1.562-0.465,2.224-1.394v-0.718h-1.796v-1.452h3.229v5.247h-1.433L270.908,149.595
			L270.908,149.595L270.908,149.595z"/>
		<path class="st0" d="M280.031,149.004v1.739h-6.195v-10.205h6.082v1.739h-4.348v2.458h3.757v1.61h-3.757v2.659H280.031z"/>
		<path class="st0" d="M288.701,150.744v-6.756l-2.299,5.031h-0.943l-2.3-5.031v6.756h-1.734v-10.205h1.859l2.639,5.807l2.664-5.807
			h1.847v10.205H288.701z"/>
		<path class="st0" d="M298.489,149.004v1.739h-6.195v-10.205h6.082v1.739h-4.348v2.458h3.757v1.61h-3.757v2.659H298.489z"/>
		<path class="st0" d="M301.618,144.204v6.54h-1.734v-10.205h1.345l4.649,6.698v-6.684h1.735v10.192h-1.408L301.618,144.204z"/>
		<path class="st0" d="M316.143,142.278h-2.84v8.466h-1.734v-8.466h-2.852v-1.739h7.426L316.143,142.278L316.143,142.278z"/>
	</g>
	<text transform="matrix(0.8742 0 0 1 322.414 150.744)" class="st0 st2 st3"> </text>
	<g class="st1">
		<path class="st0" d="M136.37,166.146v-10.192h1.735v10.192H136.37z"/>
		<path class="st0" d="M141.698,159.606v6.54h-1.735v-10.205h1.345l4.649,6.698v-6.684h1.735v10.192h-1.408L141.698,159.606z"/>
		<path class="st0" d="M149.551,166.146v-10.205h3.242c0.729,0,1.368,0.135,1.916,0.403c0.549,0.268,1.007,0.632,1.376,1.092
			c0.368,0.46,0.645,0.999,0.83,1.617c0.184,0.618,0.276,1.277,0.276,1.977c0,0.776-0.103,1.478-0.308,2.105
			c-0.205,0.628-0.501,1.164-0.886,1.61c-0.385,0.446-0.848,0.79-1.389,1.035c-0.541,0.245-1.146,0.367-1.816,0.367L149.551,166.146
			L149.551,166.146z M155.444,161.03c0-0.488-0.058-0.939-0.176-1.352c-0.118-0.412-0.289-0.766-0.516-1.063
			c-0.226-0.297-0.505-0.527-0.835-0.689c-0.331-0.163-0.706-0.245-1.124-0.245h-1.508v6.727h1.508c0.428,0,0.806-0.086,1.137-0.259
			c0.332-0.172,0.607-0.41,0.83-0.712s0.392-0.658,0.509-1.071C155.386,161.953,155.444,161.509,155.444,161.03z"/>
		<path class="st0" d="M162.33,164.465c0.41,0,0.756-0.096,1.036-0.287c0.28-0.191,0.507-0.441,0.678-0.748
			c0.171-0.307,0.293-0.658,0.364-1.056c0.071-0.397,0.107-0.807,0.107-1.228v-5.204h1.722v5.204c0,0.699-0.074,1.356-0.219,1.969
			c-0.147,0.613-0.377,1.15-0.691,1.61c-0.314,0.46-0.718,0.824-1.212,1.092c-0.494,0.268-1.085,0.403-1.771,0.403
			c-0.712,0-1.317-0.142-1.816-0.424c-0.499-0.283-0.902-0.656-1.212-1.121c-0.31-0.464-0.534-1.003-0.672-1.618
			c-0.139-0.613-0.207-1.251-0.207-1.911v-5.204h1.734v5.204c0,0.431,0.035,0.846,0.107,1.244c0.071,0.397,0.193,0.75,0.364,1.056
			s0.396,0.553,0.673,0.74S161.928,164.465,162.33,164.465z"/>
		<path class="st0" d="M173.3,158.615c-0.058-0.067-0.166-0.158-0.32-0.273c-0.155-0.115-0.344-0.227-0.565-0.338
			c-0.222-0.111-0.463-0.204-0.722-0.281c-0.259-0.077-0.524-0.115-0.791-0.115c-0.477,0-0.834,0.101-1.068,0.302
			c-0.235,0.201-0.352,0.484-0.352,0.849c0,0.211,0.044,0.385,0.132,0.524c0.088,0.139,0.215,0.261,0.384,0.367
			c0.167,0.106,0.379,0.201,0.634,0.287c0.255,0.086,0.551,0.178,0.886,0.273c0.436,0.135,0.831,0.279,1.188,0.431
			c0.356,0.154,0.657,0.346,0.905,0.576c0.247,0.23,0.437,0.505,0.572,0.826c0.134,0.321,0.201,0.718,0.201,1.186
			c0,0.546-0.09,1.014-0.27,1.401c-0.18,0.388-0.42,0.702-0.722,0.942c-0.302,0.239-0.653,0.415-1.055,0.525
			c-0.402,0.11-0.821,0.165-1.256,0.165c-0.67,0-1.333-0.115-1.985-0.345s-1.24-0.556-1.759-0.978l0.766-1.71
			c0.075,0.086,0.211,0.199,0.408,0.338c0.197,0.139,0.429,0.278,0.697,0.417c0.268,0.139,0.565,0.256,0.892,0.352
			c0.327,0.096,0.661,0.144,1.005,0.144c0.955,0,1.433-0.35,1.433-1.05c0-0.23-0.054-0.421-0.163-0.575
			c-0.109-0.153-0.264-0.287-0.465-0.403c-0.201-0.115-0.444-0.219-0.729-0.316c-0.285-0.095-0.603-0.196-0.955-0.302
			c-0.427-0.135-0.798-0.28-1.112-0.439c-0.314-0.158-0.576-0.343-0.785-0.553c-0.21-0.211-0.367-0.46-0.471-0.748
			c-0.105-0.287-0.157-0.627-0.157-1.02c0-0.517,0.083-0.978,0.251-1.381c0.167-0.402,0.4-0.738,0.698-1.006
			c0.298-0.268,0.643-0.472,1.037-0.611c0.393-0.139,0.817-0.209,1.268-0.209c0.629,0,1.206,0.113,1.735,0.338
			c0.529,0.225,0.988,0.491,1.382,0.798L173.3,158.615z"/>
		<path class="st0" d="M182.321,157.68h-2.839v8.466h-1.735v-8.466h-2.852v-1.739h7.426V157.68z"/>
		<path class="st0" d="M183.44,166.146v-10.205h3.946c0.411,0,0.79,0.098,1.138,0.295c0.348,0.196,0.647,0.455,0.898,0.776
			c0.251,0.321,0.448,0.685,0.591,1.092c0.143,0.408,0.214,0.818,0.214,1.229c0,0.661-0.145,1.262-0.434,1.804
			c-0.288,0.541-0.681,0.931-1.175,1.171l2.098,3.838h-1.96l-1.872-3.42h-1.71v3.42H183.44z M185.174,160.987h2.174
			c0.159,0,0.308-0.044,0.447-0.13c0.138-0.086,0.257-0.203,0.358-0.352c0.1-0.149,0.18-0.324,0.239-0.525
			c0.058-0.201,0.087-0.417,0.087-0.647c0-0.239-0.034-0.46-0.1-0.661c-0.067-0.201-0.157-0.376-0.271-0.525
			c-0.113-0.148-0.243-0.263-0.389-0.345c-0.147-0.082-0.295-0.122-0.446-0.122h-2.099V160.987z"/>
		<path class="st0" d="M191.909,166.146v-10.192h1.734v10.192H191.909z"/>
		<path class="st0" d="M201.698,164.408v1.739h-6.195v-10.205h6.082v1.739h-4.348v2.458h3.757v1.61h-3.757v2.659H201.698z"/>
		<path class="st0" d="M203.092,166.146v-10.205h1.734v8.466h4.549v1.739H203.092z"/>
	</g>
	<polyline class="st0" points="151.368,184.57 146.605,179.873 118.93,207.53 123.463,212.441 	"/>
	<polyline class="st0" points="351.355,-0.956 346.365,-5.409 320.102,23.592 324.874,28.271 	"/>
	<path class="st0" d="M128.215,185.318c-15.405-19.878-24.205-43.896-24.205-70.991c0-64.909,52.619-117.527,117.528-117.527
		c64.909,0,117.527,52.618,117.527,117.527c0,12.95-2.1,25.409-5.97,37.061l4.999,1.579c4.026-12.15,6.212-25.139,6.212-38.64
		c0-67.802-54.966-122.768-122.768-122.768c-67.803,0-122.768,54.965-122.768,122.767c0,27.898,9.312,53.617,24.989,74.235
		L128.215,185.318z"/>
</g>
</svg>
